<svg viewBox = "0 0 200 200" width="200" height="200" xmlns="http://www.w3.org/2000/svg"><g transform="matrix(1 0 0 1 100 100)"  ><g style=""   ><g transform="matrix(1 0 0 1 32 -58)" clip-path="url(#CLIPPATH_211)"  ><clipPath id="CLIPPATH_211" ><rect transform="matrix(1 0 0 1 -32 58)" id="clip0_123_12" x="-100" y="-100" rx="0" ry="0" width="200" height="200" /></clipPath><path style="stroke: none; stroke-width: 1; stroke-dasharray: none; stroke-linecap: butt; stroke-dashoffset: 0; stroke-linejoin: miter; stroke-miterlimit: 4; fill: rgb(99,106,232); fill-rule: nonzero; opacity: 1;"  transform=" translate(-132, -42)" d="M 128.81 0 L 174 0 L 174 45.19 C 174 55.4831 169.911 65.3545 162.633 72.6328 C 155.355 79.9111 145.483 84 135.19 84 L 90 84 L 90 38.81 C 90 28.5169 94.0889 18.6455 101.367 11.3672 C 108.645 4.0889 118.517 0 128.81 0 Z" stroke-linecap="round" /></g><g transform="matrix(1 0 0 1 25.82 -49.33)" clip-path="url(#CLIPPATH_212)"  ><clipPath id="CLIPPATH_212" ><rect transform="matrix(1 0 0 1 -25.82 49.33)" id="clip0_123_12" x="-100" y="-100" rx="0" ry="0" width="200" height="200" /></clipPath><path style="stroke: none; stroke-width: 1; stroke-dasharray: none; stroke-linecap: butt; stroke-dashoffset: 0; stroke-linejoin: miter; stroke-miterlimit: 4; fill: rgb(255,255,255); fill-rule: nonzero; opacity: 1;"  transform=" translate(-125.82, -50.67)" d="M 124.118 28.2557 L 148.235 28.2557 L 148.235 52.3726 C 148.235 57.8658 146.053 63.134 142.168 67.0182 C 138.284 70.9025 133.016 73.0846 127.523 73.0846 L 103.406 73.0846 L 103.406 48.9677 C 103.406 43.4746 105.588 38.2064 109.472 34.3221 C 113.356 30.4379 118.625 28.2557 124.118 28.2557 Z" stroke-linecap="round" /></g><g transform="matrix(1 0 0 1 -48 -48)" clip-path="url(#CLIPPATH_213)"  ><clipPath id="CLIPPATH_213" ><rect transform="matrix(1 0 0 1 48 48)" id="clip0_123_12" x="-100" y="-100" rx="0" ry="0" width="200" height="200" /></clipPath><path style="stroke: none; stroke-width: 1; stroke-dasharray: none; stroke-linecap: butt; stroke-dashoffset: 0; stroke-linejoin: miter; stroke-miterlimit: 4; fill: rgb(99,106,232); fill-rule: nonzero; opacity: 1;"  transform=" translate(-52, -52)" d="M 84 84 L 49.57 84 C 45.6868 84 41.8416 83.2351 38.2541 81.7491 C 34.6665 80.2631 31.4067 78.085 28.6609 75.3391 C 25.915 72.5933 23.7369 69.3335 22.2509 65.7459 C 20.7649 62.1584 20 58.3132 20 54.43 L 20 20 L 54.43 20 C 62.2725 20 69.7937 23.1154 75.3391 28.6609 C 80.8846 34.2063 84 41.7275 84 49.57 L 84 84 Z" stroke-linecap="round" /></g><g transform="matrix(1 0 0 1 -42.27 -41.56)" clip-path="url(#CLIPPATH_214)"  ><clipPath id="CLIPPATH_214" ><rect transform="matrix(1 0 0 1 42.27 41.56)" id="clip0_123_12" x="-100" y="-100" rx="0" ry="0" width="200" height="200" /></clipPath><path style="stroke: none; stroke-width: 1; stroke-dasharray: none; stroke-linecap: butt; stroke-dashoffset: 0; stroke-linejoin: miter; stroke-miterlimit: 4; fill: rgb(255,255,255); fill-rule: nonzero; opacity: 1;"  transform=" translate(-57.73, -58.44)" d="M 72.3679 73.0846 L 56.6152 73.0846 C 54.8386 73.0846 53.0793 72.7347 51.4379 72.0548 C 49.7964 71.3749 48.305 70.3784 47.0487 69.1221 C 45.7924 67.8658 44.7959 66.3743 44.116 64.7329 C 43.4361 63.0915 43.0861 61.3322 43.0861 59.5555 L 43.0861 43.8029 L 58.8388 43.8029 C 62.427 43.8029 65.8681 45.2282 68.4053 47.7654 C 70.9425 50.3026 72.3679 53.7438 72.3679 57.332 L 72.3679 73.0846 Z" stroke-linecap="round" /></g><g transform="matrix(1 0 0 1 -58 32)" clip-path="url(#CLIPPATH_215)"  ><clipPath id="CLIPPATH_215" ><rect transform="matrix(1 0 0 1 58 -32)" id="clip0_123_12" x="-100" y="-100" rx="0" ry="0" width="200" height="200" /></clipPath><path style="stroke: none; stroke-width: 1; stroke-dasharray: none; stroke-linecap: butt; stroke-dashoffset: 0; stroke-linejoin: miter; stroke-miterlimit: 4; fill: rgb(232,97,140); fill-rule: nonzero; opacity: 1;"  transform=" translate(-42, -132)" d="M 38.81 90 L 84 90 L 84 135.19 C 84 145.483 79.9111 155.355 72.6328 162.633 C 65.3545 169.911 55.4831 174 45.19 174 L 0 174 L 0 128.81 C 0 118.517 4.0889 108.645 11.3672 101.367 C 18.6455 94.0889 28.5169 90 38.81 90 Z" stroke-linecap="round" /></g><g transform="matrix(1 0 0 1 -49.78 24.54)" clip-path="url(#CLIPPATH_216)"  ><clipPath id="CLIPPATH_216" ><rect transform="matrix(1 0 0 1 49.78 -24.54)" id="clip0_123_12" x="-100" y="-100" rx="0" ry="0" width="200" height="200" /></clipPath><path style="stroke: none; stroke-width: 1; stroke-dasharray: none; stroke-linecap: butt; stroke-dashoffset: 0; stroke-linejoin: miter; stroke-miterlimit: 4; fill: rgb(255,255,255); fill-rule: nonzero; opacity: 1;"  transform=" translate(-50.22, -124.54)" d="M 48.5328 102.384 L 72.3679 102.384 L 72.3679 126.219 C 72.3679 131.648 70.2112 136.855 66.3724 140.694 C 62.5335 144.533 57.3269 146.689 51.8979 146.689 L 28.0627 146.689 L 28.0627 122.854 C 28.0627 117.425 30.2194 112.219 34.0583 108.38 C 37.8972 104.541 43.1038 102.384 48.5328 102.384 Z" stroke-linecap="round" /></g><g transform="matrix(1 0 0 1 45 45)" clip-path="url(#CLIPPATH_217)"  ><clipPath id="CLIPPATH_217" ><rect transform="matrix(1 0 0 1 -45 -45)" id="clip0_123_12" x="-100" y="-100" rx="0" ry="0" width="200" height="200" /></clipPath><path style="stroke: none; stroke-width: 1; stroke-dasharray: none; stroke-linecap: butt; stroke-dashoffset: 0; stroke-linejoin: miter; stroke-miterlimit: 4; fill: rgb(232,97,140); fill-rule: nonzero; opacity: 1;"  transform=" translate(-145, -145)" d="M 200 200 L 140.82 200 C 127.342 200 114.415 194.646 104.885 185.115 C 95.3542 175.585 90 162.658 90 149.18 L 90 90 L 149.18 90 C 162.658 90 175.585 95.3542 185.115 104.885 C 194.646 114.415 200 127.342 200 140.82 L 200 200 Z" stroke-linecap="round" /></g><g transform="matrix(1 0 0 1 35.32 34.3)" clip-path="url(#CLIPPATH_218)"  ><clipPath id="CLIPPATH_218" ><rect transform="matrix(1 0 0 1 -35.32 -34.3)" id="clip0_123_12" x="-100" y="-100" rx="0" ry="0" width="200" height="200" /></clipPath><path style="stroke: none; stroke-width: 1; stroke-dasharray: none; stroke-linecap: butt; stroke-dashoffset: 0; stroke-linejoin: miter; stroke-miterlimit: 4; fill: rgb(255,255,255); fill-rule: nonzero; opacity: 1;"  transform=" translate(-135.32, -134.3)" d="M 167.241 166.22 L 132.898 166.22 C 125.076 166.22 117.575 163.113 112.044 157.582 C 106.513 152.051 103.406 144.55 103.406 136.728 L 103.406 102.384 L 137.749 102.384 C 145.571 102.384 153.072 105.492 158.603 111.022 C 164.134 116.553 167.241 124.055 167.241 131.876 L 167.241 166.22 Z" stroke-linecap="round" /></g></g></g></svg>